<?xml version="1.0" encoding="utf-8"?>
<!-- Generator: Adobe Illustrator 14.0.0, SVG Export Plug-In . SVG Version: 6.00 Build 43363)  -->
<!DOCTYPE svg PUBLIC "-//W3C//DTD SVG 1.1//EN" "http://www.w3.org/Graphics/SVG/1.1/DTD/svg11.dtd">
<svg version="1.1" id="Layer_1" xmlns="http://www.w3.org/2000/svg" xmlns:xlink="http://www.w3.org/1999/xlink" x="0px" y="0px"
	 width="287.877px" height="281.129px" viewBox="0 0 287.877 281.129" enable-background="new 0 0 287.877 281.129"
	 xml:space="preserve">
<metadata><?xpacket begin="﻿" id="W5M0MpCehiHzreSzNTczkc9d"?>
<x:xmpmeta xmlns:x="adobe:ns:meta/" x:xmptk="Adobe XMP Core 4.2.2-c063 53.352624, 2008/07/30-18:05:41        ">
   <rdf:RDF xmlns:rdf="http://www.w3.org/1999/02/22-rdf-syntax-ns#">
      <rdf:Description rdf:about=""
            xmlns:xmp="http://ns.adobe.com/xap/1.0/"
            xmlns:xmpGImg="http://ns.adobe.com/xap/1.0/g/img/">
         <xmp:CreateDate>2012-01-05T00:57:54Z</xmp:CreateDate>
         <xmp:CreatorTool>Adobe Illustrator CS4</xmp:CreatorTool>
         <xmp:ModifyDate>2012-01-05T00:57:55Z</xmp:ModifyDate>
         <xmp:MetadataDate>2012-01-05T00:57:55Z</xmp:MetadataDate>
         <xmp:Thumbnails>
            <rdf:Alt>
               <rdf:li rdf:parseType="Resource">
                  <xmpGImg:width>256</xmpGImg:width>
                  <xmpGImg:height>256</xmpGImg:height>
                  <xmpGImg:format>JPEG</xmpGImg:format>
                  <xmpGImg:image>/9j/4AAQSkZJRgABAgEASABIAAD/7QAsUGhvdG9zaG9wIDMuMAA4QklNA+0AAAAAABAASAAAAAEA&#xA;AQBIAAAAAQAB/+4ADkFkb2JlAGTAAAAAAf/bAIQABgQEBAUEBgUFBgkGBQYJCwgGBggLDAoKCwoK&#xA;DBAMDAwMDAwQDA4PEA8ODBMTFBQTExwbGxscHx8fHx8fHx8fHwEHBwcNDA0YEBAYGhURFRofHx8f&#xA;Hx8fHx8fHx8fHx8fHx8fHx8fHx8fHx8fHx8fHx8fHx8fHx8fHx8fHx8fHx8f/8AAEQgBAAEAAwER&#xA;AAIRAQMRAf/EAaIAAAAHAQEBAQEAAAAAAAAAAAQFAwIGAQAHCAkKCwEAAgIDAQEBAQEAAAAAAAAA&#xA;AQACAwQFBgcICQoLEAACAQMDAgQCBgcDBAIGAnMBAgMRBAAFIRIxQVEGE2EicYEUMpGhBxWxQiPB&#xA;UtHhMxZi8CRygvElQzRTkqKyY3PCNUQnk6OzNhdUZHTD0uIIJoMJChgZhJRFRqS0VtNVKBry4/PE&#xA;1OT0ZXWFlaW1xdXl9WZ2hpamtsbW5vY3R1dnd4eXp7fH1+f3OEhYaHiImKi4yNjo+Ck5SVlpeYmZ&#xA;qbnJ2en5KjpKWmp6ipqqusra6voRAAICAQIDBQUEBQYECAMDbQEAAhEDBCESMUEFURNhIgZxgZEy&#xA;obHwFMHR4SNCFVJicvEzJDRDghaSUyWiY7LCB3PSNeJEgxdUkwgJChgZJjZFGidkdFU38qOzwygp&#xA;0+PzhJSktMTU5PRldYWVpbXF1eX1RlZmdoaWprbG1ub2R1dnd4eXp7fH1+f3OEhYaHiImKi4yNjo&#xA;+DlJWWl5iZmpucnZ6fkqOkpaanqKmqq6ytrq+v/aAAwDAQACEQMRAD8A9U4q7FXYq7FXYq7FXYq7&#xA;FXYq7FXYq7FXYq7FXYq7FXYq7FXYq7FXYq7FXYq7FXYq7FXYq7FXYq7FXYq7FXYq7FXYq7FXYq7F&#xA;XYq7FXYq7FXYq7FXYq7FXYq7FXYq7FXYq7FXYq7FXYq7FXYq7FXYq7FXYq7FXYq7FXYq7FXYq7FX&#xA;Yq7FXYq7FXYq7FXYq7FXYq7FXYq7FXYq7FXYq7FXYq7FXYq7FXYq7FXYq7FXYq7FXYq7FXYq7FXY&#xA;q7FXYq7FXYq7FXYq7FXYq7FXYq7FXYq7FXYq7FXYq7FXYq7FXYq7FXYq7FXYq7FXYq7FXYq7FXYq&#xA;7FXYq7FXYq7FXYq7FXYq7FXYq7FXYq7FXYq7FXYq7FXYq7FXYq7FXYq7FXYq7FXYq7FXYq7FXYq7&#xA;FXYq7FXYq7FXYq7FXYq7FXYq7FXYq7FXYq7FXYq7FXYq7FXYq7FXYq7FXYq7FXYq7FXYq7FXYq7F&#xA;XYq7FXYq7FXYq7FXYq7FXYq7FXYq7FXYq7FXYq7FXYq7FXYq7FXYq7FXYq7FXYq7FXYq7FXYq7FX&#xA;Yq7FXYq7FXYq7FXYq7FXYq7FXYq7FXYq7FXYq7FXYq7FXYq7FXYq7FXYq7FXYq7FXYq7FXYq7FXY&#xA;q7FXYq7FXYq7FXYq7FXYq7FXYq7FXYq7FXYq7FXYq7FXYq7FXYq7FXYq7FXYq7FXYq7FXYq7FXYq&#xA;7FXYq7FXYq7FXYq7FXYq7FXYq7FXYq7FXYq7FXYq7FXYq7FXYq7FXYq7FXYq7FXYq7FXYq7FXYq7&#xA;FXYq7FXYq7FXYq7FXYq7FXYq7FXYq7FXYq7FXYq7FXYq7FXYq7FXYq7FXYq7FXYq7FXYq7FXYq7F&#xA;XYq7FXYq7FXYq7FXYq7FXYq7FXYq7FXYq7FXYq7FXYq7FXYq7FXYq7FXYq7FXYq7FXYq7FXYq7FX&#xA;Yq7FXYq7FXYq7FXYq7FXYq7FXYq7FXYq7FXYq7FXYq7FXYq7FXYq7FXYq7FXYq7FXYq7FXYq7FXY&#xA;q7FXYq7FXYq7FXYq7FXYq7FXYq7FXYq7FXYq7FXYq7FXYq7FXYq7FXYq7FXYq7FXYq7FXYq7FXYq&#xA;7FXYq7FXYq7FXYq7FXYq7FXYq7FXYq7FXYq7FXYq7FXYq7FXYq7FXYq7FXYq7FXYq7FXYq7FXYq7&#xA;FXYq7FXYq7FXYq7FXYq7FXYq7FXYq7FXYq7FXYq7FXYq7FXYq7FXYq7FXYq7FXYq7FXYq7FXYq7F&#xA;XYq7FXYq7FXYq7FXYq7FXYq7FXYq7FXYq7FXYq7FXYq7FXYq7FXYq7FXYq7FXYq7FXYq7FXYq7FX&#xA;Yq7FXYq7FXYq7FXYq7FXYq7FXYq7FXYq7FXYq7FXYq7FXYq7FXYq7FXYq7FXYq7FXYq7FXYq7FXY&#xA;q7FXYq7FXYq7FXYq7FXYq7FXYq7FXYq7FXYq7FXYq7FXYq7FXYq7FXYq7FXYq7FXYq7FXYq7FXYq&#xA;7FXYq7FXYq7FXYq7FXYq7FXYq7FXYq7FXYq7FXYq7FXYq7FXYq7FXYq7FXYq7FXYq7FXYq7FXYq7&#xA;FXYq7FXYq7FXYq7FXYq7FXYq7FXYq7FXYq7FXYq7FXYq7FXYq7FXYq7FXYq7FXYq7FXYq7FXYq7F&#xA;XYq7FXYq7FXYq7FXYq7FXYq7FXYq7FXYq7FXYq7FXYq7FXYq7FXYq7FXYq7FXYq7FXYq7FXYq7FX&#xA;Yq7FXYq7FXYq7FXYq7FXYq7FXYq7FXYq7FXYq7FXYq7FXYq7FXYq7FXYq7FXYq7FXYq7FXYq7FXY&#xA;q7FXYq7FXYq7FXYq7FXYq7FXYq7FXYq7FXYq7FXYq7FXYq7FXYq7FXYq7FXYq7FXYq7FXYq7FXYq&#xA;7FXYq7FXYq7FXYq7FXYq7FXYq7FXYq7FXYq7FXYq7FXYq7FXYq7FXYq7FXYq7FXYq7FXYq7FXYq7&#xA;FXYq7FXYq7FXYq7FXYq7FXYq7FXYq7FXYq7FXYq7FXYq7FXYq7FXYq7FXYq7FXYq7FXYq7FXYq7F&#xA;XYq7FXYq7FXYq7FXYq7FXYq7FXYq7FXYq7FXYq7FXYq7FXYq7FXYq7FXYq7FXYq7FXYq7FXYq7FX&#xA;Yq7FXYq7FXYq7FXYq7FXYq7FXYq7FXYq7FXYq7FXYq7FXYq7FXYq7FXYq7FXYq7FXYq7FXYq7FXY&#xA;q7FXYq7FXYq7FXYq7FXYq7FXYq7FXYq7FXYq7FXYq7FXYq7FXYq7FXYq7FXYq7FXYq7FXYq7FXYq&#xA;7FXYq7FXYq7FXYq7FXYq7FXYq7FXYq7FXYq7FXYq7FXYq7FXYq7FXYq7FXYq7FXYq7FXYq7FXYq7&#xA;FXYq7FXYq7FXYq7FXYq7FXYq7FXYq7FXYq7FXYq7FXYq7FXYq7FXYq7FXYq7FXYq7FXYq7FXYq7F&#xA;XYq7FXYq7FXYq7FXYq7FXYq7FXYq7FXYq7FXYq7FXYq7FXYq7FXYq7FXYq7FXYq7FXYq7FXYq7FX&#xA;Yq7FXYq7FXYq7FXYq7FXYq7FXYq7FXYq7FXYq7FXYq7FXYq7FXYq7FXYq7FXYq7FXYq7FXYq7FXY&#xA;q7FXYq7FXYq7FXYq7FXYq7FXYq7FXYq7FX//2Q==</xmpGImg:image>
               </rdf:li>
            </rdf:Alt>
         </xmp:Thumbnails>
      </rdf:Description>
      <rdf:Description rdf:about=""
            xmlns:pdf="http://ns.adobe.com/pdf/1.3/">
         <pdf:Producer>Adobe PDF library 9.00</pdf:Producer>
      </rdf:Description>
      <rdf:Description rdf:about=""
            xmlns:dc="http://purl.org/dc/elements/1.1/">
         <dc:format>image/svg+xml</dc:format>
         <dc:title>
            <rdf:Alt>
               <rdf:li xml:lang="x-default">wizerati</rdf:li>
            </rdf:Alt>
         </dc:title>
      </rdf:Description>
      <rdf:Description rdf:about=""
            xmlns:xmpTPg="http://ns.adobe.com/xap/1.0/t/pg/"
            xmlns:stDim="http://ns.adobe.com/xap/1.0/sType/Dimensions#"
            xmlns:xmpG="http://ns.adobe.com/xap/1.0/g/">
         <xmpTPg:NPages>1</xmpTPg:NPages>
         <xmpTPg:HasVisibleTransparency>True</xmpTPg:HasVisibleTransparency>
         <xmpTPg:HasVisibleOverprint>False</xmpTPg:HasVisibleOverprint>
         <xmpTPg:MaxPageSize rdf:parseType="Resource">
            <stDim:w>101.556592</stDim:w>
            <stDim:h>99.176031</stDim:h>
            <stDim:unit>Millimeters</stDim:unit>
         </xmpTPg:MaxPageSize>
         <xmpTPg:PlateNames>
            <rdf:Seq>
               <rdf:li>Cyan</rdf:li>
               <rdf:li>Magenta</rdf:li>
               <rdf:li>Yellow</rdf:li>
               <rdf:li>Black</rdf:li>
            </rdf:Seq>
         </xmpTPg:PlateNames>
         <xmpTPg:SwatchGroups>
            <rdf:Seq>
               <rdf:li rdf:parseType="Resource">
                  <xmpG:groupName>Default Swatch Group</xmpG:groupName>
                  <xmpG:groupType>0</xmpG:groupType>
               </rdf:li>
            </rdf:Seq>
         </xmpTPg:SwatchGroups>
      </rdf:Description>
      <rdf:Description rdf:about=""
            xmlns:xmpMM="http://ns.adobe.com/xap/1.0/mm/"
            xmlns:stRef="http://ns.adobe.com/xap/1.0/sType/ResourceRef#"
            xmlns:stEvt="http://ns.adobe.com/xap/1.0/sType/ResourceEvent#">
         <xmpMM:DocumentID>xmp.did:1E6CA2A012206811B905B7923460A368</xmpMM:DocumentID>
         <xmpMM:InstanceID>xmp.iid:1E6CA2A012206811B905B7923460A368</xmpMM:InstanceID>
         <xmpMM:OriginalDocumentID>xmp.did:2E0827683075E011AE2BEDA03EB5CA60</xmpMM:OriginalDocumentID>
         <xmpMM:RenditionClass>proof:pdf</xmpMM:RenditionClass>
         <xmpMM:DerivedFrom rdf:parseType="Resource">
            <stRef:instanceID>xmp.iid:FD7F117407206811B905B7923460A368</stRef:instanceID>
            <stRef:documentID>xmp.did:FD7F117407206811B905B7923460A368</stRef:documentID>
            <stRef:originalDocumentID>xmp.did:2E0827683075E011AE2BEDA03EB5CA60</stRef:originalDocumentID>
            <stRef:renditionClass>proof:pdf</stRef:renditionClass>
         </xmpMM:DerivedFrom>
         <xmpMM:History>
            <rdf:Seq>
               <rdf:li rdf:parseType="Resource">
                  <stEvt:action>saved</stEvt:action>
                  <stEvt:instanceID>xmp.iid:2E0827683075E011AE2BEDA03EB5CA60</stEvt:instanceID>
                  <stEvt:when>2011-05-03T09:52:38+07:00</stEvt:when>
                  <stEvt:softwareAgent>Adobe Illustrator CS4</stEvt:softwareAgent>
                  <stEvt:changed>/</stEvt:changed>
               </rdf:li>
               <rdf:li rdf:parseType="Resource">
                  <stEvt:action>saved</stEvt:action>
                  <stEvt:instanceID>xmp.iid:FD7F117407206811B905B7923460A368</stEvt:instanceID>
                  <stEvt:when>2012-01-05T00:14:39Z</stEvt:when>
                  <stEvt:softwareAgent>Adobe Illustrator CS4</stEvt:softwareAgent>
                  <stEvt:changed>/</stEvt:changed>
               </rdf:li>
               <rdf:li rdf:parseType="Resource">
                  <stEvt:action>saved</stEvt:action>
                  <stEvt:instanceID>xmp.iid:1E6CA2A012206811B905B7923460A368</stEvt:instanceID>
                  <stEvt:when>2012-01-05T00:57:55Z</stEvt:when>
                  <stEvt:softwareAgent>Adobe Illustrator CS4</stEvt:softwareAgent>
                  <stEvt:changed>/</stEvt:changed>
               </rdf:li>
            </rdf:Seq>
         </xmpMM:History>
      </rdf:Description>
   </rdf:RDF>
</x:xmpmeta>
                                                                                                    
                                                                                                    
                                                                                                    
                                                                                                    
                                                                                                    
                                                                                                    
                                                                                                    
                                                                                                    
                                                                                                    
                                                                                                    
                                                                                                    
                                                                                                    
                                                                                                    
                                                                                                    
                                                                                                    
                                                                                                    
                                                                                                    
                                                                                                    
                                                                                                    
                                                                                                    
                           
<?xpacket end="w"?>
	</metadata>
<g opacity="0.05">
	<g>
		<g>
			<path fill="#FF0000" d="M8.39,112.282c-6.509,31.119-2.542,83.19,44.622,123.354c-5.577,0-25.684-13.467-40.541-46.566
				c13.209,56.613,61.68,85.664,115.271,81.871c26.599-1.883,51.9-10.135,71.827-25.539
				c60.151-46.506,83.206-143.417,40.393-208.418c7.053,11.288,20.979,45.852,14.369,88.426
				c-12.19,78.55-76.84,123.759-156.006,107.259C42.603,221.055,4.95,178.798,8.39,112.282z"/>
			<path fill="#FF0000" d="M233.212,219.031c0,0,36.125-17.402,44.355-70.137c1.41,21.146-11.73,46.096-24.323,62.695
				c63.377-59.93,29.744-166.846-20.878-201.629c-3.217-2.209-5.066-5.468-8.895-6.561c-2.485-0.709-6.314-1.17-11.296,0.131
				c0,0-10.875,3.005-21.318-1.574c-2.317-1.16-3.746-0.752-5.328,0.693c-1.406,1.286-1.909,3.546-3.372,6.046
				c1.947-0.413,5.188-2.993,12.914-1.478c7.729,1.515,7.52,7.987,18.094,7.284c6.377-0.425,47.462,14.098,60.147,66.257
				c11.341,46.621-11.854,105.634-31.34,129.384C239.506,213.152,235.314,217.121,233.212,219.031z"/>
			<polygon fill="#FF0000" points="64.697,0.598 69.331,12.973 82.53,12.339 72.193,20.57 76.874,32.926 65.852,25.639 
				55.547,33.91 59.071,21.175 48.021,13.93 61.222,13.347 			"/>
			<polygon fill="#FF0000" points="90.843,117.429 91.959,123.454 98.036,124.23 92.652,127.154 93.792,133.174 89.348,128.957 
				83.974,131.901 86.612,126.37 82.151,122.17 88.226,122.97 			"/>
			<polygon fill="#FF0000" points="97.56,74.87 95.048,81.774 100.856,86.274 93.513,86.019 91.028,92.933 89.001,85.871 
				81.658,85.645 87.749,81.535 85.694,74.48 91.485,79.002 			"/>
			<path fill="#FF0000" d="M169.301,1.936c-14.315,7.47-29.287,2.301-43.146,3.931c-2.092,0.246-4.645,0.783-6.498,1.947
				c-0.704,0.442-1.736,1.308-2.194,2.252c-0.622,1.287,0.277,2.121,0.848,3.218c1.026,1.978,1.037,2.92,1.79,5.941
				c0.25,1.005,0.51,2.034,0.78,3.084l-14.412,1.549l4.992-7.058l-10.346,3.551l-6.539-8.766l0.183,10.936l-10.359,3.513
				l10.457,3.207l0.139,10.935l6.281-8.953l10.443,3.249l-5.867-7.801l16.123-1.158c1.092,5.499,5.813,22.38,7.229,27.622
				l4.118,3.754l7.835-4.347l-4.837,7.357l6.686,6.512l-9.917-2.656l-0.771,1.128c2.208,8.572,2.698,12.035,3.911,18.843
				c1.977,11.093,0.114,16.143-8.01,23.144c-4.113,3.546-10.525,9.811-13.784,13.602c-35.987,41.874,18.801,1.154,27.108-3.521
				c4.935-2.775,3.383,0.002,4.025,2.569c0.405,1.614,2.51,2.15,5.901,3.12c0,0-1.583,11.75-1.138,17.317
				c0.066,0.849,0.863,2.591,2.361,2.371c1.133-0.167,4.203-3.222,5.629-3.824c1.818-0.765,1.75-0.44,1.975,1.918
				c0.151,1.612,1.227,2.494,1.551,3.192c-0.061-1.19,0.238-3.785,0.188-5.652c-0.03-1.11-0.093-2.092-0.958-2.261
				c-0.659-0.129-1.623,0.266-2.225,0.524c-2.138,0.922-4.742,2.538-5.587,1.129c-0.356-0.595-0.449-2.615-0.508-3.254
				c-0.311-3.447-0.62-9.486,0.503-13.344c-4.854-0.982-7.808-7.687,0.787-9.229c-0.132,6.354-0.045,9.493,4.648,11.428
				c2.593,1.068,4.177,0.624,4.373,3.107c0.299,3.759-1.481,6.385,1.632,9.375c1.819,1.748,2.758,3.101,2.444,5.344
				c-0.88,6.332-4.535,8.781-7.656,10.667c-4.75,2.868-11.169,2.994-19.029,6.149c-16.583,6.653-29.578,23.06-25.045,48.085
				c0.886-14.215,11.812-19.811,21.333-19.833c13.9-0.031,27.377-0.87,38.376-12.743c-2.331,18.43-21.102,30.184-39.271,34.71
				c-30.134,7.511-66.841-3.211-84.668-24.224c-2.099-2.471-4.127-5.051-6.045-7.727l-0.459-0.115l-6.312,10.152l-0.813-11.927
				l-11.605-2.865l11.092-4.461l-0.315-4.375c-1.854-3.515-3.52-7.108-4.958-10.739C21.235,124.946,13.86,76.706,68.37,31.861
				c0,0-10.877,3.72-23.47,16.885c0,0,9.835-12.304,17.312-18.459c0,0-74.72,48.125-37.563,136.164c0,0-15.173-19.457-16.261-54.167
				c-4.317,18.709-2.542,83.192,44.623,123.353c-5.577,0-25.685-13.465-40.542-46.564c13.21,56.613,61.773,85.334,115.271,80.412
				c17.629-1.623,41.57-8.021,57.312-17.269c55.729-32.729,106.884-138.567,54.422-215.974
				c51.635,56.952,21.78,142.724-6.266,182.791c0,0,36.126-17.4,44.355-70.137c1.41,21.146-11.73,46.096-24.323,62.695
				c63.38-59.93,29.748-166.847-20.875-201.63c-3.217-2.209-5.067-5.469-8.894-6.562c-2.486-0.709-6.315-1.17-11.297,0.131
				c0,0-10.875,3.005-21.32-1.574c0,0-3.005-1.289-5.725,1.288c0,0-5.303,11.735-11.025,13.31l-33.508,3.49
				c-0.413-0.22-1.607-1.787-1.986-2.246c-3.619-4.391,1.068-4.444,5.496-4.267c8.769,0.35,15.979-1.955,23.292-7.065
				C171.997,2.856,178.938-3.095,169.301,1.936L169.301,1.936z M145.037,23.855l27.934-2.007c0,0-1.187,4.622,1.824,7.043
				c2.318,1.865,4.802,1.227,7.48,1.312c4.355,0.142,4.354,1.594,7.785,4.801c1.401,1.311,3.465,2.586,6.091,2.418
				c2.112-0.136,2.946-0.9,4.762-1.787c2.646-1.293,8.456-3.068,11.634-2.555c-6.479,2.159-16.812,11.024-11.025,18.245
				c4.316,0.9,32.2,16.599,3.582,42.07c0,0-2.861-6.439-7.298-12.306c19.259-14.797,14.342-24.891-10.945-14.308
				c0,0-16.693-15.517-31.66-30.873l-0.346,0.026l-1.518,4.68l-1.451-4.448l-4.827,0.386l3.932-3.117l-0.961-2.902
				c-2.09-2.207-4.235-4.509-6.104-6.581L145.037,23.855L145.037,23.855z M160.1,71.701l2.437,4.199l4.742-1.038l-3.24,3.615
				l2.453,4.188l-4.438-1.964l-3.228,3.627l0.497-4.829l-4.447-1.948l4.747-1.02L160.1,71.701L160.1,71.701z M169.456,146.222
				c0.928,28.917-19.265,31.688-36.218,31.568c7.154-10.875,23.826-17.672,23.826-17.672c-9.729,0.69-25.292,10.061-31.838,17.028
				c6.064-17.214,24.616-16.33,35.354-21.819C164.453,153.346,167.619,150.652,169.456,146.222L169.456,146.222z M194.455,258.169
				c6.051-16.137,21.938-19.936,36.633-34.629C222.788,243.001,194.455,258.169,194.455,258.169L194.455,258.169z M103.211,276.25
				c51.515,0.285,84.282-18.315,84.282-18.315c-6.869,9.442-24.471,16.887-24.471,16.887c47.507-10.877,91.01-53.805,91.01-53.805
				C206.813,305.441,103.211,276.25,103.211,276.25z M229.147,157.126l-12.438,3.037l-0.904,12.772l-6.733-10.89l-12.426,3.086
				l8.275-9.77l-6.775-10.864l11.85,4.852l8.238-9.801l-0.952,12.769L229.147,157.126z"/>
			<polygon fill="#FF0000" points="90.281,154.736 77.754,163.892 82.648,178.617 70.068,169.533 57.577,178.737 62.33,163.966 
				49.716,154.93 65.231,154.886 69.928,140.097 74.765,154.839 			"/>
			<polygon fill="#FF0000" points="37.222,86.225 46.442,97.25 59.756,91.836 52.121,104.012 61.383,115.001 47.443,111.502 
				39.854,123.708 38.875,109.369 24.922,105.922 38.256,100.56 			"/>
		</g>
	</g>
</g>
</svg>
